<?xml version="1.0" encoding="utf-8"?>
<!-- Generator: Adobe Illustrator 26.5.0, SVG Export Plug-In . SVG Version: 6.00 Build 0)  -->
<svg version="1.1" id="Warstwa_1" xmlns="http://www.w3.org/2000/svg" xmlns:xlink="http://www.w3.org/1999/xlink" x="0px" y="0px"
	 viewBox="0 0 226 63.9" style="enable-background:new 0 0 226 63.9;" xml:space="preserve">
<style type="text/css">
	.st0{fill-rule:evenodd;clip-rule:evenodd;fill:#004F9F;}
	.st1{fill-rule:evenodd;clip-rule:evenodd;fill:#E30613;}
	.st2{fill:#FFFFFF;}
</style>
<rect x="85.9" y="0" class="st0" width="140.1" height="63.9"/>
<rect y="0" class="st1" width="83.5" height="63.9"/>
<g>
	<path class="st2" d="M39,48.4h-5.4l-6-19.9l-6,19.9h-5.4L7.5,15.5h6.7l5.1,20.7l6-20.7H30l6,20.7l5.1-20.7h6.7L39,48.4z"/>
</g>
<g>
	<path class="st2" d="M110.5,30h-2.3l-2.6-8.7L103,30h-2.3l-3.8-14.3h2.9l2.2,9l2.6-9h2.1l2.6,9l2.2-9h2.9L110.5,30z"/>
	<path class="st2" d="M115.7,30V15.7h2.8V30H115.7z"/>
	<path class="st2" d="M129.5,30l-0.8-2.5h-5.1l-0.9,2.5h-2.9l5.2-14.3h2.2l5.2,14.3H129.5z M126.2,19.9l-1.8,5.2h3.6L126.2,19.9z"/>
	<path class="st2" d="M142.7,28.6c-0.9,0.9-2.3,1.4-3.8,1.4h-5.2V15.7h5.2c1.5,0,2.8,0.4,3.8,1.4c1.6,1.6,1.4,3.6,1.4,5.7
		S144.3,27,142.7,28.6z M140.8,19.1c-0.5-0.6-1.1-0.9-2.1-0.9h-2.1v9.3h2.1c1,0,1.6-0.3,2.1-0.9s0.6-1.7,0.6-3.8
		C141.4,20.6,141.3,19.7,140.8,19.1z"/>
	<path class="st2" d="M155.3,28.5c-1,1-2.2,1.6-3.9,1.6c-1.6,0-2.9-0.6-3.9-1.6c-1.4-1.4-1.4-3.2-1.4-5.7s0-4.3,1.4-5.7
		c1-1,2.2-1.6,3.9-1.6c1.6,0,2.8,0.6,3.9,1.6c1.4,1.4,1.4,3.2,1.4,5.7S156.7,27.1,155.3,28.5z M153.2,18.8c-0.4-0.5-1-0.8-1.8-0.8
		s-1.4,0.3-1.8,0.8c-0.5,0.6-0.7,1.3-0.7,4s0.1,3.4,0.7,4c0.4,0.5,1,0.8,1.8,0.8s1.4-0.3,1.8-0.8c0.5-0.6,0.7-1.3,0.7-4
		S153.7,19.4,153.2,18.8z"/>
	<path class="st2" d="M169.3,30v-8.3l-2.7,5.4h-1.9l-2.7-5.4V30h-2.8V15.7h2.7l3.7,7.7l3.7-7.7h2.7V30H169.3z"/>
	<path class="st2" d="M183.7,28.5c-1,1-2.2,1.6-3.9,1.6c-1.6,0-2.9-0.6-3.9-1.6c-1.4-1.4-1.4-3.2-1.4-5.7s0-4.3,1.4-5.7
		c1-1,2.2-1.6,3.9-1.6c1.6,0,2.8,0.6,3.9,1.6c1.4,1.4,1.4,3.2,1.4,5.7S185.1,27.1,183.7,28.5z M181.6,18.8c-0.4-0.5-1-0.8-1.8-0.8
		s-1.4,0.3-1.8,0.8c-0.5,0.6-0.7,1.3-0.7,4s0.1,3.4,0.7,4c0.4,0.5,1,0.8,1.8,0.8s1.4-0.3,1.8-0.8c0.5-0.6,0.7-1.3,0.7-4
		S182.1,19.4,181.6,18.8z"/>
	<path class="st2" d="M191.5,30.1c-2.2,0-3.8-0.5-5.2-1.9l1.8-1.8c0.9,0.9,2.1,1.2,3.5,1.2c1.6,0,2.5-0.6,2.5-1.8
		c0-0.5-0.1-0.9-0.4-1.2c-0.3-0.3-0.6-0.4-1.3-0.5l-1.7-0.2c-1.2-0.2-2.1-0.6-2.8-1.2c-0.7-0.7-1-1.6-1-2.8c0-2.5,1.9-4.3,5-4.3
		c2,0,3.4,0.5,4.6,1.7l-1.8,1.7c-0.9-0.9-2-1-2.9-1c-1.5,0-2.2,0.8-2.2,1.8c0,0.4,0.1,0.7,0.4,1c0.3,0.3,0.7,0.5,1.3,0.6l1.7,0.2
		c1.3,0.2,2.1,0.5,2.7,1.1c0.8,0.7,1.1,1.8,1.1,3C196.8,28.5,194.4,30.1,191.5,30.1z M192.6,14.3h-1.7l1.3-3.4h2.7L192.6,14.3z"/>
	<path class="st2" d="M203.8,30.1c-1.5,0-2.8-0.5-3.9-1.6c-0.6-0.6-1-1.3-1.2-2.1c-0.2-0.8-0.2-2-0.2-3.6s0.1-2.7,0.2-3.6
		c0.2-0.8,0.5-1.5,1.2-2.1c1-1,2.3-1.6,3.9-1.6c2.7,0,4.8,1.6,5.3,4.5h-2.8c-0.3-1.2-1.1-2-2.4-2c-0.8,0-1.4,0.2-1.8,0.7
		c-0.6,0.6-0.7,1.3-0.7,4s0.1,3.4,0.7,4c0.4,0.5,1,0.7,1.8,0.7c1.3,0,2.1-0.8,2.4-2h2.8C208.5,28.5,206.5,30.1,203.8,30.1z"/>
	<path class="st2" d="M211,30V15.7h2.8V30H211z"/>
</g>
<g>
	<path class="st2" d="M98.3,47.4c0.8,0.4,2,0.8,3.3,0.8c1.5,0,2.2-0.6,2.2-1.6c0-0.9-0.7-1.5-2.3-2.1c-2.3-1-3.6-2.4-3.6-4.2
		c0-2.4,1.9-4.3,5.2-4.3c1.4,0,2.5,0.3,3.3,0.7l-0.6,2.6c-0.5-0.3-1.4-0.6-2.7-0.6c-1.4,0-2,0.7-2,1.4c0,0.9,0.7,1.3,2.5,2.1
		c2.4,1,3.4,2.4,3.4,4.3c0,2.5-1.9,4.5-5.5,4.5c-1.5,0-3-0.4-3.7-0.8L98.3,47.4z"/>
	<path class="st2" d="M109,36.1h3.1v6.5h0c0.3-0.6,0.6-1.1,0.9-1.7l2.9-4.8h3.8l-4.4,6.2l4.6,8.3h-3.6l-3.1-6.2l-1.1,1.4v4.8H109
		V36.1z"/>
	<path class="st2" d="M121.2,36.1h3.2V48h5.2v2.7h-8.3V36.1z"/>
	<path class="st2" d="M139.3,44.4h-4.7V48h5.3v2.6h-8.5V36.1h8.2v2.6h-5v3.1h4.7V44.4z"/>
	<path class="st2" d="M142,36.3c0.9-0.2,2.3-0.3,4-0.3c1.9,0,3.3,0.4,4.3,1.2c0.9,0.7,1.5,1.9,1.5,3.3c0,1.5-0.5,2.7-1.3,3.5
		c-1.1,1-2.7,1.5-4.4,1.5c-0.4,0-0.7,0-0.9,0v5.3H142V36.3z M145.1,42.9c0.2,0.1,0.5,0.1,0.9,0.1c1.6,0,2.6-0.9,2.6-2.4
		c0-1.3-0.8-2.2-2.4-2.2c-0.5,0-0.9,0-1.1,0.1V42.9z"/>
	<path class="st2" d="M165.6,43.2c0,5-2.6,7.7-6.4,7.7c-4,0-6.2-3.3-6.2-7.4c0-4.3,2.4-7.6,6.4-7.6
		C163.6,35.8,165.6,39.3,165.6,43.2z M156.4,43.4c0,3,1.1,4.9,3,4.9c1.9,0,2.9-2.1,2.9-5c0-2.6-1-4.9-3-4.9
		C157.5,38.4,156.4,40.4,156.4,43.4z"/>
	<path class="st2" d="M169.7,50.6l-3.2-14.5h3.3l1,5.9c0.3,1.7,0.5,3.5,0.8,5.1h0c0.2-1.6,0.6-3.3,0.9-5.1l1.2-5.9h3.1l1.1,6
		c0.3,1.7,0.5,3.3,0.8,4.9h0c0.2-1.7,0.5-3.3,0.8-5.1l1-5.9h3.2l-3.4,14.5H177l-1.1-5.8c-0.3-1.4-0.5-2.9-0.7-4.6h0
		c-0.2,1.7-0.5,3.1-0.8,4.6l-1.3,5.8H169.7z"/>
	<path class="st2" d="M193.3,44.4h-4.7V48h5.3v2.6h-8.5V36.1h8.2v2.6h-5v3.1h4.7V44.4z"/>
</g>
<g>
	<path class="st2" d="M51.2,41.2c1.8,0.9,4.6,1.8,7.4,1.8c3.4,0,5.1-1.5,5.1-3.6c0-2.2-1.6-3.4-5.2-4.9c-5.3-2.2-8.3-5.4-8.3-9.7
		c0-5.6,4.4-9.9,11.9-9.9c3.3,0,5.8,0.7,7.5,1.5l-1.5,5.9c-1.2-0.6-3.3-1.4-6.1-1.4c-3.1,0-4.6,1.6-4.6,3.3c0,2.1,1.6,3.1,5.7,4.8
		c5.4,2.4,7.8,5.5,7.8,9.8C71,44.5,66.7,49,58.4,49c-3.4,0-6.8-0.9-8.5-1.8L51.2,41.2z"/>
</g>
</svg>
